<svg version="1.1" viewBox="0.0 0.0 505.65354330708664 397.5196850393701" fill="none" stroke="none" stroke-linecap="square" stroke-miterlimit="10" xmlns:xlink="http://www.w3.org/1999/xlink" xmlns="http://www.w3.org/2000/svg"><clipPath id="p.0"><path d="m0 0l505.65353 0l0 397.51968l-505.65353 0l0 -397.51968z" clip-rule="nonzero"/></clipPath><g clip-path="url(#p.0)"><path fill="#ffffff" d="m0 0l505.65353 0l0 397.51968l-505.65353 0z" fill-rule="evenodd"/><path fill="#000000" fill-opacity="0.0" d="m65.95538 163.61417l77.354324 0l0 31.905518l-77.354324 0z" fill-rule="evenodd"/><path fill="#000000" d="m75.67413 190.28667l0 -1.296875q0.625 0 0.984375 -0.0625q0.375 -0.0625 0.53125 -0.21875q0.171875 -0.140625 0.171875 -0.421875q0 -0.140625 -0.125 -0.625q-0.109375 -0.5 -0.234375 -1.0625l-1.859375 -7.875l1.734375 0l1.25 6.90625l1.203125 -6.90625l1.71875 0l-2.203125 9.765625q-0.140625 0.671875 -0.53125 1.0625q-0.390625 0.390625 -0.984375 0.5625q-0.59375 0.171875 -1.453125 0.171875l-0.203125 0zm6.4126434 0.734375l0 -12.296875l1.71875 0l0 0.734375q0.296875 -0.34375 0.734375 -0.59375q0.4375 -0.265625 1.03125 -0.265625q0.71875 0 1.140625 0.375q0.421875 0.375 0.625 0.953125q0.203125 0.5625 0.265625 1.15625q0.078125 0.578125 0.078125 0.984375l0 2.25q0 0.96875 -0.203125 1.84375q-0.1875 0.875 -0.6875 1.40625q-0.5 0.53125 -1.421875 0.53125q-0.5 0 -0.890625 -0.25q-0.375 -0.25 -0.671875 -0.5625l0 3.734375l-1.71875 0zm2.953125 -4.265625q0.4375 0 0.625 -0.328125q0.203125 -0.328125 0.25 -0.875q0.046875 -0.5625 0.046875 -1.234375l0 -2.25q0 -0.578125 -0.0625 -1.0625q-0.0625 -0.484375 -0.28125 -0.765625q-0.203125 -0.296875 -0.640625 -0.296875q-0.34375 0 -0.65625 0.140625q-0.296875 0.140625 -0.515625 0.34375l0 5.921875q0.234375 0.171875 0.53125 0.296875q0.3125 0.109375 0.703125 0.109375zm6.729767 1.34375q-1.015625 0 -1.609375 -0.40625q-0.59375 -0.421875 -0.84375 -1.1875q-0.25 -0.765625 -0.25 -1.8125l0 -2.6875q0 -1.046875 0.25 -1.8125q0.25 -0.765625 0.84375 -1.171875q0.59375 -0.421875 1.609375 -0.421875q1.03125 0 1.609375 0.421875q0.578125 0.40625 0.828125 1.171875q0.25 0.765625 0.25 1.8125l0 2.6875q0 1.046875 -0.25 1.8125q-0.25 0.765625 -0.828125 1.1875q-0.578125 0.40625 -1.609375 0.40625zm0 -1.265625q0.5 0 0.6875 -0.28125q0.203125 -0.296875 0.25 -0.765625q0.046875 -0.46875 0.046875 -0.984375l0 -2.890625q0 -0.53125 -0.046875 -0.984375q-0.046875 -0.46875 -0.25 -0.765625q-0.1875 -0.296875 -0.6875 -0.296875q-0.5 0 -0.703125 0.296875q-0.203125 0.296875 -0.25 0.765625q-0.03125 0.453125 -0.03125 0.984375l0 2.890625q0 0.515625 0.03125 0.984375q0.046875 0.46875 0.25 0.765625q0.203125 0.28125 0.703125 0.28125zm4.2531433 1.140625l0 -9.25l2.59375 0q0.953125 0 1.484375 0.3125q0.53125 0.3125 0.765625 0.828125q0.234375 0.5 0.25 1.0625q0.015625 0.6875 -0.234375 1.234375q-0.234375 0.546875 -0.984375 0.765625q0.578125 0.125 0.890625 0.484375q0.3125 0.359375 0.421875 0.859375q0.125 0.484375 0.125 1.015625q0 0.796875 -0.234375 1.40625q-0.21875 0.609375 -0.796875 0.953125q-0.5625 0.328125 -1.609375 0.328125l-2.671875 0zm1.6875 -1.296875l0.609375 0q0.359375 0 0.65625 -0.09375q0.3125 -0.109375 0.5 -0.421875q0.1875 -0.328125 0.1875 -0.9375q0 -0.71875 -0.171875 -1.046875q-0.171875 -0.328125 -0.453125 -0.40625q-0.28125 -0.078125 -0.640625 -0.078125l-0.6875 0l0 2.984375zm0 -4.21875l0.828125 0q0.5 0 0.78125 -0.28125q0.296875 -0.296875 0.296875 -1.03125q0 -0.65625 -0.34375 -0.90625q-0.328125 -0.265625 -0.90625 -0.265625l-0.65625 0l0 2.484375zm7.5150146 5.640625q-1.078125 0 -1.671875 -0.421875q-0.59375 -0.421875 -0.828125 -1.25q-0.234375 -0.828125 -0.234375 -2.015625l0 -2.125q0 -1.21875 0.234375 -2.03125q0.25 -0.828125 0.84375 -1.234375q0.609375 -0.421875 1.65625 -0.421875q1.171875 0 1.71875 0.484375q0.5625 0.46875 0.734375 1.375q0.171875 0.90625 0.171875 2.171875l0 0.75l-3.640625 0l0 1.859375q0 0.5625 0.09375 0.921875q0.109375 0.34375 0.34375 0.515625q0.234375 0.15625 0.59375 0.15625q0.390625 0 0.578125 -0.171875q0.203125 -0.1875 0.28125 -0.53125q0.078125 -0.34375 0.078125 -0.8125l0 -0.5625l1.65625 0l0 0.359375q0 1.390625 -0.59375 2.1875q-0.59375 0.796875 -2.015625 0.796875zm-1.015625 -5.640625l1.96875 0l0 -0.84375q0 -0.5625 -0.078125 -0.953125q-0.0625 -0.40625 -0.265625 -0.59375q-0.1875 -0.203125 -0.625 -0.203125q-0.421875 0 -0.640625 0.1875q-0.203125 0.1875 -0.28125 0.65625q-0.078125 0.453125 -0.078125 1.25l0 0.5zm5.1891327 5.515625l0 -9.25l1.71875 0l0 3.890625l2.1875 0l0 -3.890625l1.71875 0l0 9.25l-1.71875 0l0 -4.109375l-2.1875 0l0 4.109375l-1.71875 0zm7.3440094 0l0 -9.25l1.71875 0l0 3.828125q0.03125 0 0.078125 0q0.0625 0 0.109375 0q0.046875 0 0.078125 0q0.953125 0.015625 1.609375 0.140625q0.671875 0.109375 1.078125 0.40625q0.421875 0.296875 0.609375 0.828125q0.203125 0.515625 0.203125 1.328125q0 0.75 -0.203125 1.28125q-0.1875 0.515625 -0.625 0.84375q-0.421875 0.3125 -1.125 0.453125q-0.703125 0.140625 -1.71875 0.140625l-1.8125 0zm1.71875 -1.015625l0.09375 0q0.8125 0 1.28125 -0.140625q0.46875 -0.140625 0.65625 -0.515625q0.1875 -0.375 0.1875 -1.0625q0 -0.625 -0.171875 -0.984375q-0.15625 -0.359375 -0.609375 -0.53125q-0.4375 -0.171875 -1.265625 -0.171875q-0.015625 0 -0.078125 0q-0.0625 0 -0.09375 0l0 3.40625z" fill-rule="nonzero"/><path fill="#ffffff" d="m177.08661 43.372704l123.71655 0l0 324.34644l-123.71655 0z" fill-rule="evenodd"/><path stroke="#000000" stroke-width="1.0" stroke-linejoin="round" stroke-linecap="butt" stroke-dasharray="1.0,3.0" d="m177.08661 43.372704l123.71655 0l0 324.34644l-123.71655 0z" fill-rule="evenodd"/><path fill="#000000" fill-opacity="0.0" d="m5.47769 33.56693l485.76376 0.37795258" fill-rule="evenodd"/><path stroke="#000000" stroke-width="1.0" stroke-linejoin="round" stroke-linecap="butt" d="m5.47769 33.56693l482.3367 0.3752861" fill-rule="evenodd"/><path fill="#000000" stroke="#000000" stroke-width="1.0" stroke-linecap="butt" d="m487.8144 33.942215l-1.1254578 1.1237068l3.0906372 -1.1221771l-3.0888977 -1.1269875z" fill-rule="evenodd"/><path fill="#000000" fill-opacity="0.0" d="m139.72966 3.6132655l217.25984 0l0 31.90551l-217.25984 0z" fill-rule="evenodd"/><path fill="#000000" d="m149.74529 27.973267l0 -12.953125l1.796875 0l0 5.59375l3.328125 0l0 -5.59375l1.8125 0l0 12.953125l-1.8125 0l0 -6.0625l-3.328125 0l0 6.0625l-1.796875 0zm10.491638 0.125q-0.546875 0 -0.96875 -0.3125q-0.40625 -0.3125 -0.65625 -0.796875q-0.234375 -0.484375 -0.234375 -1.03125q0 -0.859375 0.28125 -1.453125q0.296875 -0.59375 0.796875 -1.0q0.5 -0.40625 1.15625 -0.703125q0.671875 -0.3125 1.40625 -0.609375l0 -0.65625q0 -0.546875 -0.0625 -0.921875q-0.0625 -0.375 -0.265625 -0.546875q-0.1875 -0.1875 -0.59375 -0.1875q-0.34375 0 -0.5625 0.15625q-0.21875 0.15625 -0.3125 0.453125q-0.09375 0.296875 -0.09375 0.703125l0 0.46875l-1.703125 -0.078125q0.03125 -1.53125 0.703125 -2.25q0.671875 -0.734375 2.078125 -0.734375q1.375 0 1.953125 0.75q0.578125 0.75 0.578125 2.171875l0 4.234375q0 0.421875 0.015625 0.828125q0.03125 0.40625 0.0625 0.75q0.046875 0.34375 0.078125 0.640625l-1.5625 0q-0.046875 -0.25 -0.125 -0.640625q-0.0625 -0.40625 -0.09375 -0.71875q-0.171875 0.546875 -0.625 1.015625q-0.453125 0.46875 -1.25 0.46875zm0.671875 -1.46875q0.25 0 0.46875 -0.140625q0.234375 -0.140625 0.40625 -0.328125q0.171875 -0.1875 0.234375 -0.296875l0 -2.625q-0.390625 0.21875 -0.75 0.453125q-0.34375 0.21875 -0.609375 0.46875q-0.265625 0.25 -0.421875 0.5625q-0.140625 0.3125 -0.140625 0.703125q0 0.5625 0.203125 0.890625q0.203125 0.3125 0.609375 0.3125zm4.4722595 1.34375l0 -9.25l5.375 0l0 9.25l-1.703125 0l0 -7.953125l-1.953125 0l0 7.953125l-1.71875 0zm7.104019 3.046875l0 -12.296875l1.71875 0l0 0.734375q0.296875 -0.34375 0.734375 -0.59375q0.4375 -0.265625 1.03125 -0.265625q0.71875 0 1.140625 0.375q0.421875 0.375 0.625 0.953125q0.203125 0.5625 0.265625 1.15625q0.078125 0.578125 0.078125 0.984375l0 2.25q0 0.96875 -0.203125 1.84375q-0.1875 0.875 -0.6875 1.40625q-0.5 0.53125 -1.421875 0.53125q-0.5 0 -0.890625 -0.25q-0.375 -0.25 -0.671875 -0.5625l0 3.734375l-1.71875 0zm2.953125 -4.265625q0.4375 0 0.625 -0.328125q0.203125 -0.328125 0.25 -0.875q0.046875 -0.5625 0.046875 -1.234375l0 -2.25q0 -0.578125 -0.0625 -1.0625q-0.0625 -0.484375 -0.28125 -0.765625q-0.203125 -0.296875 -0.640625 -0.296875q-0.34375 0 -0.65625 0.140625q-0.296875 0.140625 -0.515625 0.34375l0 5.921875q0.234375 0.171875 0.53125 0.296875q0.3125 0.109375 0.703125 0.109375zm5.854767 1.34375q-0.546875 0 -0.96875 -0.3125q-0.40625 -0.3125 -0.65625 -0.796875q-0.234375 -0.484375 -0.234375 -1.03125q0 -0.859375 0.28125 -1.453125q0.296875 -0.59375 0.796875 -1.0q0.5 -0.40625 1.15625 -0.703125q0.671875 -0.3125 1.40625 -0.609375l0 -0.65625q0 -0.546875 -0.0625 -0.921875q-0.0625 -0.375 -0.265625 -0.546875q-0.1875 -0.1875 -0.59375 -0.1875q-0.34375 0 -0.5625 0.15625q-0.21875 0.15625 -0.3125 0.453125q-0.09375 0.296875 -0.09375 0.703125l0 0.46875l-1.703125 -0.078125q0.03125 -1.53125 0.703125 -2.25q0.671875 -0.734375 2.078125 -0.734375q1.375 0 1.953125 0.75q0.578125 0.75 0.578125 2.171875l0 4.234375q0 0.421875 0.015625 0.828125q0.03125 0.40625 0.0625 0.75q0.046875 0.34375 0.078125 0.640625l-1.5625 0q-0.046875 -0.25 -0.125 -0.640625q-0.0625 -0.40625 -0.09375 -0.71875q-0.171875 0.546875 -0.625 1.015625q-0.453125 0.46875 -1.25 0.46875zm0.671875 -1.46875q0.25 0 0.46875 -0.140625q0.234375 -0.140625 0.40625 -0.328125q0.171875 -0.1875 0.234375 -0.296875l0 -2.625q-0.390625 0.21875 -0.75 0.453125q-0.34375 0.21875 -0.609375 0.46875q-0.265625 0.25 -0.421875 0.5625q-0.140625 0.3125 -0.140625 0.703125q0 0.5625 0.203125 0.890625q0.203125 0.3125 0.609375 0.3125zm4.4722595 1.34375l0 -9.25l2.59375 0q0.953125 0 1.484375 0.3125q0.53125 0.3125 0.765625 0.828125q0.234375 0.5 0.25 1.0625q0.015625 0.6875 -0.234375 1.234375q-0.234375 0.546875 -0.984375 0.765625q0.578125 0.125 0.890625 0.484375q0.3125 0.359375 0.421875 0.859375q0.125 0.484375 0.125 1.015625q0 0.796875 -0.234375 1.40625q-0.21875 0.609375 -0.796875 0.953125q-0.5625 0.328125 -1.609375 0.328125l-2.671875 0zm1.6875 -1.296875l0.609375 0q0.359375 0 0.65625 -0.09375q0.3125 -0.109375 0.5 -0.421875q0.1875 -0.328125 0.1875 -0.9375q0 -0.71875 -0.171875 -1.046875q-0.171875 -0.328125 -0.453125 -0.40625q-0.28125 -0.078125 -0.640625 -0.078125l-0.6875 0l0 2.984375zm0 -4.21875l0.828125 0q0.5 0 0.78125 -0.28125q0.296875 -0.296875 0.296875 -1.03125q0 -0.65625 -0.34375 -0.90625q-0.328125 -0.265625 -0.90625 -0.265625l-0.65625 0l0 2.484375zm4.2627716 5.59375l0 -1.296875q0.484375 0 0.765625 -0.1875q0.28125 -0.1875 0.421875 -0.640625q0.15625 -0.46875 0.234375 -1.234375q0.09375 -0.78125 0.15625 -1.953125l0.203125 -4.015625l4.84375 0l0 9.25l-1.703125 0l0 -7.953125l-1.640625 0l-0.140625 2.71875q-0.078125 1.59375 -0.234375 2.640625q-0.140625 1.03125 -0.46875 1.609375q-0.3125 0.578125 -0.859375 0.828125q-0.53125 0.234375 -1.375 0.234375l-0.203125 0zm10.91626 0.046875q-1.078125 0 -1.671875 -0.421875q-0.59375 -0.421875 -0.828125 -1.25q-0.234375 -0.828125 -0.234375 -2.015625l0 -2.125q0 -1.21875 0.234375 -2.03125q0.25 -0.828125 0.84375 -1.234375q0.609375 -0.421875 1.65625 -0.421875q1.171875 0 1.71875 0.484375q0.5625 0.46875 0.734375 1.375q0.171875 0.90625 0.171875 2.171875l0 0.75l-3.640625 0l0 1.859375q0 0.5625 0.09375 0.921875q0.109375 0.34375 0.34375 0.515625q0.234375 0.15625 0.59375 0.15625q0.390625 0 0.578125 -0.171875q0.203125 -0.1875 0.28125 -0.53125q0.078125 -0.34375 0.078125 -0.8125l0 -0.5625l1.65625 0l0 0.359375q0 1.390625 -0.59375 2.1875q-0.59375 0.796875 -2.015625 0.796875zm-1.015625 -5.640625l1.96875 0l0 -0.84375q0 -0.5625 -0.078125 -0.953125q-0.0625 -0.40625 -0.265625 -0.59375q-0.1875 -0.203125 -0.625 -0.203125q-0.421875 0 -0.640625 0.1875q-0.203125 0.1875 -0.28125 0.65625q-0.078125 0.453125 -0.078125 1.25l0 0.5zm5.1891327 5.515625l0 -9.25l1.71875 0l0 3.890625l2.1875 0l0 -3.890625l1.71875 0l0 9.25l-1.71875 0l0 -4.109375l-2.1875 0l0 4.109375l-1.71875 0zm7.3440094 0l0 -9.25l1.4375 0l0 6.21875l2.796875 -6.21875l1.34375 0l0 9.25l-1.40625 0l0 -6.265625l-2.78125 6.265625l-1.390625 0zm9.874512 0.125q-1.078125 0 -1.671875 -0.421875q-0.59375 -0.421875 -0.828125 -1.25q-0.234375 -0.828125 -0.234375 -2.015625l0 -2.125q0 -1.21875 0.234375 -2.03125q0.25 -0.828125 0.84375 -1.234375q0.609375 -0.421875 1.65625 -0.421875q1.171875 0 1.71875 0.484375q0.5625 0.46875 0.734375 1.375q0.171875 0.90625 0.171875 2.171875l0 0.75l-3.640625 0l0 1.859375q0 0.5625 0.09375 0.921875q0.109375 0.34375 0.34375 0.515625q0.234375 0.15625 0.59375 0.15625q0.390625 0 0.578125 -0.171875q0.203125 -0.1875 0.28125 -0.53125q0.078125 -0.34375 0.078125 -0.8125l0 -0.5625l1.65625 0l0 0.359375q0 1.390625 -0.59375 2.1875q-0.59375 0.796875 -2.015625 0.796875zm-1.015625 -5.640625l1.96875 0l0 -0.84375q0 -0.5625 -0.078125 -0.953125q-0.0625 -0.40625 -0.265625 -0.59375q-0.1875 -0.203125 -0.625 -0.203125q-0.421875 0 -0.640625 0.1875q-0.203125 0.1875 -0.28125 0.65625q-0.078125 0.453125 -0.078125 1.25l0 0.5zm8.853134 5.515625l0 -9.25l2.59375 0q0.953125 0 1.484375 0.3125q0.53125 0.3125 0.765625 0.828125q0.234375 0.5 0.25 1.0625q0.015625 0.6875 -0.234375 1.234375q-0.234375 0.546875 -0.984375 0.765625q0.578125 0.125 0.890625 0.484375q0.3125 0.359375 0.421875 0.859375q0.125 0.484375 0.125 1.015625q0 0.796875 -0.234375 1.40625q-0.21875 0.609375 -0.796875 0.953125q-0.5625 0.328125 -1.609375 0.328125l-2.671875 0zm1.6875 -1.296875l0.609375 0q0.359375 0 0.65625 -0.09375q0.3125 -0.109375 0.5 -0.421875q0.1875 -0.328125 0.1875 -0.9375q0 -0.71875 -0.171875 -1.046875q-0.171875 -0.328125 -0.453125 -0.40625q-0.28125 -0.078125 -0.640625 -0.078125l-0.6875 0l0 2.984375zm0 -4.21875l0.828125 0q0.5 0 0.78125 -0.28125q0.296875 -0.296875 0.296875 -1.03125q0 -0.65625 -0.34375 -0.90625q-0.328125 -0.265625 -0.90625 -0.265625l-0.65625 0l0 2.484375zm4.9525146 5.515625l0 -9.25l1.71875 0l0 3.828125q0.03125 0 0.078125 0q0.0625 0 0.109375 0q0.046875 0 0.078125 0q0.953125 0.015625 1.609375 0.140625q0.671875 0.109375 1.078125 0.40625q0.421875 0.296875 0.609375 0.828125q0.203125 0.515625 0.203125 1.328125q0 0.75 -0.203125 1.28125q-0.1875 0.515625 -0.625 0.84375q-0.421875 0.3125 -1.125 0.453125q-0.703125 0.140625 -1.71875 0.140625l-1.8125 0zm1.71875 -1.015625l0.09375 0q0.8125 0 1.28125 -0.140625q0.46875 -0.140625 0.65625 -0.515625q0.1875 -0.375 0.1875 -1.0625q0 -0.625 -0.171875 -0.984375q-0.15625 -0.359375 -0.609375 -0.53125q-0.4375 -0.171875 -1.265625 -0.171875q-0.015625 0 -0.078125 0q-0.0625 0 -0.09375 0l0 3.40625zm4.8125 1.015625l0 -9.25l1.71875 0l0 9.25l-1.71875 0zm6.0148926 0.125q-0.796875 0 -1.390625 -0.359375q-0.59375 -0.359375 -0.90625 -1.0625q-0.3125 -0.71875 -0.3125 -1.78125l0 -5.4375q0 -1.21875 0.1875 -1.984375q0.1875 -0.765625 0.578125 -1.203125q0.40625 -0.453125 1.046875 -0.71875q0.671875 -0.265625 1.203125 -0.375q0.53125 -0.109375 1.015625 -0.25q0.484375 -0.140625 1.0 -0.4375l0.34375 1.421875q-0.4375 0.28125 -0.984375 0.421875q-0.53125 0.140625 -1.0625 0.25q-0.53125 0.09375 -0.984375 0.3125q-0.46875 0.234375 -0.734375 0.6875q-0.25 0.453125 -0.25 1.25l0 1.5q0.21875 -0.21875 0.546875 -0.390625q0.34375 -0.1875 0.734375 -0.3125q0.390625 -0.140625 0.734375 -0.140625q0.578125 0 1.0625 0.3125q0.484375 0.296875 0.765625 1.03125q0.28125 0.71875 0.28125 1.96875l0 1.765625q0 1.453125 -0.375 2.21875q-0.359375 0.75 -1.015625 1.03125q-0.640625 0.28125 -1.484375 0.28125zm0.15625 -1.265625q0.359375 0 0.578125 -0.15625q0.21875 -0.171875 0.3125 -0.546875q0.109375 -0.390625 0.109375 -1.03125l0 -2.8125q0 -0.578125 -0.078125 -0.921875q-0.078125 -0.359375 -0.265625 -0.53125q-0.171875 -0.171875 -0.46875 -0.171875q-0.171875 0 -0.375 0.0625q-0.1875 0.046875 -0.40625 0.15625q-0.21875 0.109375 -0.453125 0.265625l0 3.796875q0 0.671875 0.09375 1.09375q0.109375 0.421875 0.34375 0.609375q0.234375 0.1875 0.609375 0.1875zm4.2736206 4.1875l0 -12.296875l1.71875 0l0 0.734375q0.296875 -0.34375 0.734375 -0.59375q0.4375 -0.265625 1.03125 -0.265625q0.71875 0 1.140625 0.375q0.421875 0.375 0.625 0.953125q0.203125 0.5625 0.265625 1.15625q0.078125 0.578125 0.078125 0.984375l0 2.25q0 0.96875 -0.203125 1.84375q-0.1875 0.875 -0.6875 1.40625q-0.5 0.53125 -1.421875 0.53125q-0.5 0 -0.890625 -0.25q-0.375 -0.25 -0.671875 -0.5625l0 3.734375l-1.71875 0zm2.953125 -4.265625q0.4375 0 0.625 -0.328125q0.203125 -0.328125 0.25 -0.875q0.046875 -0.5625 0.046875 -1.234375l0 -2.25q0 -0.578125 -0.0625 -1.0625q-0.0625 -0.484375 -0.28125 -0.765625q-0.203125 -0.296875 -0.640625 -0.296875q-0.34375 0 -0.65625 0.140625q-0.296875 0.140625 -0.515625 0.34375l0 5.921875q0.234375 0.171875 0.53125 0.296875q0.3125 0.109375 0.703125 0.109375zm6.729767 1.34375q-1.015625 0 -1.609375 -0.40625q-0.59375 -0.421875 -0.84375 -1.1875q-0.25 -0.765625 -0.25 -1.8125l0 -2.6875q0 -1.046875 0.25 -1.8125q0.25 -0.765625 0.84375 -1.171875q0.59375 -0.421875 1.609375 -0.421875q1.03125 0 1.609375 0.421875q0.578125 0.40625 0.828125 1.171875q0.25 0.765625 0.25 1.8125l0 2.6875q0 1.046875 -0.25 1.8125q-0.25 0.765625 -0.828125 1.1875q-0.578125 0.40625 -1.609375 0.40625zm0 -1.265625q0.5 0 0.6875 -0.28125q0.203125 -0.296875 0.25 -0.765625q0.046875 -0.46875 0.046875 -0.984375l0 -2.890625q0 -0.53125 -0.046875 -0.984375q-0.046875 -0.46875 -0.25 -0.765625q-0.1875 -0.296875 -0.6875 -0.296875q-0.5 0 -0.703125 0.296875q-0.203125 0.296875 -0.25 0.765625q-0.03125 0.453125 -0.03125 0.984375l0 2.890625q0 0.515625 0.03125 0.984375q0.046875 0.46875 0.25 0.765625q0.203125 0.28125 0.703125 0.28125zm6.7843933 1.265625q-1.140625 0 -1.71875 -0.453125q-0.578125 -0.453125 -0.78125 -1.28125q-0.203125 -0.84375 -0.203125 -1.9375l0 -2.140625q0 -1.15625 0.203125 -1.984375q0.21875 -0.828125 0.796875 -1.265625q0.578125 -0.4375 1.703125 -0.4375q1.015625 0 1.5625 0.328125q0.546875 0.328125 0.75 0.984375q0.21875 0.640625 0.21875 1.59375l0 0.546875l-1.546875 0l0 -0.5625q0 -0.609375 -0.09375 -0.953125q-0.078125 -0.359375 -0.28125 -0.515625q-0.203125 -0.15625 -0.59375 -0.15625q-0.421875 0 -0.640625 0.1875q-0.21875 0.1875 -0.296875 0.65625q-0.0625 0.453125 -0.0625 1.234375l0 2.90625q0 1.1875 0.21875 1.59375q0.21875 0.390625 0.796875 0.390625q0.4375 0 0.625 -0.1875q0.203125 -0.203125 0.265625 -0.5625q0.0625 -0.375 0.0625 -0.84375l0 -0.75l1.546875 0l0 0.640625q0 0.921875 -0.21875 1.59375q-0.21875 0.671875 -0.765625 1.03125q-0.546875 0.34375 -1.546875 0.34375zm4.0447693 -0.125l0 -9.25l1.71875 0l0 3.90625l0.484375 0l1.734375 -3.90625l1.765625 0l-1.9375 4.484375l1.96875 4.765625l-1.796875 0l-1.734375 -4.3125l-0.484375 0l0 4.3125l-1.71875 0zm6.6400146 0l0 -9.25l1.4375 0l0 6.21875l2.796875 -6.21875l1.34375 0l0 9.25l-1.40625 0l0 -6.265625l-2.78125 6.265625l-1.390625 0z" fill-rule="nonzero"/><path fill="#cfe2f3" d="m15.879265 196.81102l469.19684 0l0 -0.37794495l-469.19684 0z" fill-rule="evenodd"/><path stroke="#000000" stroke-width="1.0" stroke-linejoin="round" stroke-linecap="butt" d="m15.879265 196.81102l469.19684 0l0 -0.37794495l-469.19684 0z" fill-rule="evenodd"/><path fill="#ffffff" d="m176.72704 174.37007l123.71654 0l0 44.503937l-123.71654 0z" fill-rule="evenodd"/><path stroke="#000000" stroke-width="1.0" stroke-linejoin="round" stroke-linecap="butt" d="m176.72704 174.37007l123.71654 0l0 44.503937l-123.71654 0z" fill-rule="evenodd"/><path fill="#000000" d="m225.8329 202.48204l0 -12.953125l5.5625 0l0 1.3125l-3.765625 0l0 4.078125l0.40625 0q1.40625 0 2.328125 0.328125q0.921875 0.328125 1.375 1.140625q0.453125 0.8125 0.453125 2.296875q0 1.015625 -0.25 1.734375q-0.234375 0.703125 -0.734375 1.171875q-0.5 0.453125 -1.265625 0.671875q-0.75 0.21875 -1.8125 0.21875l-2.296875 0zm1.796875 -1.296875l0.515625 0q0.796875 0 1.3125 -0.171875q0.53125 -0.1875 0.765625 -0.734375q0.25 -0.546875 0.25 -1.609375q0 -1.328125 -0.5 -1.875q-0.5 -0.5625 -1.875 -0.5625l-0.46875 0l0 4.953125zm7.622772 1.421875q-0.546875 0 -0.96875 -0.3125q-0.40625 -0.3125 -0.65625 -0.796875q-0.234375 -0.484375 -0.234375 -1.03125q0 -0.859375 0.28125 -1.453125q0.296875 -0.59375 0.796875 -1.0q0.5 -0.40625 1.15625 -0.703125q0.671875 -0.3125 1.40625 -0.609375l0 -0.65625q0 -0.546875 -0.0625 -0.921875q-0.0625 -0.375 -0.265625 -0.546875q-0.1875 -0.1875 -0.59375 -0.1875q-0.34375 0 -0.5625 0.15625q-0.21875 0.15625 -0.3125 0.453125q-0.09375 0.296875 -0.09375 0.703125l0 0.46875l-1.703125 -0.078125q0.03125 -1.53125 0.703125 -2.25q0.671875 -0.734375 2.078125 -0.734375q1.375 0 1.953125 0.75q0.578125 0.75 0.578125 2.171875l0 4.234375q0 0.421875 0.015625 0.828125q0.03125 0.40625 0.0625 0.75q0.046875 0.34375 0.078125 0.640625l-1.5625 0q-0.046875 -0.25 -0.125 -0.640625q-0.0625 -0.40625 -0.09375 -0.71875q-0.171875 0.546875 -0.625 1.015625q-0.453125 0.46875 -1.25 0.46875zm0.671875 -1.46875q0.25 0 0.46875 -0.140625q0.234375 -0.140625 0.40625 -0.328125q0.171875 -0.1875 0.234375 -0.296875l0 -2.625q-0.390625 0.21875 -0.75 0.453125q-0.34375 0.21875 -0.609375 0.46875q-0.265625 0.25 -0.421875 0.5625q-0.140625 0.3125 -0.140625 0.703125q0 0.5625 0.203125 0.890625q0.203125 0.3125 0.609375 0.3125zm6.6597595 1.5q-0.640625 0 -1.109375 -0.171875q-0.46875 -0.171875 -0.78125 -0.546875q-0.296875 -0.375 -0.4375 -0.9375q-0.140625 -0.5625 -0.140625 -1.328125l1.453125 0q0 0.9375 0.265625 1.359375q0.28125 0.40625 0.78125 0.40625q0.421875 0 0.609375 -0.21875q0.203125 -0.21875 0.25 -0.609375q0.046875 -0.390625 0.046875 -0.875q0 -0.609375 -0.171875 -0.90625q-0.171875 -0.296875 -0.578125 -0.390625q-0.40625 -0.09375 -1.125 -0.09375l0 -1.21875q1.125 0 1.5 -0.328125q0.375 -0.34375 0.375 -1.109375q0 -0.6875 -0.296875 -0.984375q-0.28125 -0.3125 -0.71875 -0.3125q-0.46875 0 -0.765625 0.3125q-0.28125 0.296875 -0.28125 1.203125l-1.453125 0q0 -1.03125 0.3125 -1.640625q0.3125 -0.609375 0.890625 -0.875q0.578125 -0.265625 1.375 -0.265625q0.859375 0 1.390625 0.359375q0.53125 0.34375 0.78125 0.921875q0.25 0.5625 0.25 1.1875q0 0.796875 -0.25 1.25q-0.25 0.4375 -0.609375 0.640625q-0.359375 0.1875 -0.6875 0.21875q0.34375 0.0625 0.703125 0.234375q0.359375 0.15625 0.609375 0.625q0.25 0.453125 0.25 1.40625q0 1.3125 -0.609375 2.0q-0.609375 0.6875 -1.828125 0.6875zm5.4843903 -0.03125q-0.546875 0 -0.96875 -0.3125q-0.40625 -0.3125 -0.65625 -0.796875q-0.234375 -0.484375 -0.234375 -1.03125q0 -0.859375 0.28125 -1.453125q0.296875 -0.59375 0.796875 -1.0q0.5 -0.40625 1.15625 -0.703125q0.671875 -0.3125 1.40625 -0.609375l0 -0.65625q0 -0.546875 -0.0625 -0.921875q-0.0625 -0.375 -0.265625 -0.546875q-0.1875 -0.1875 -0.59375 -0.1875q-0.34375 0 -0.5625 0.15625q-0.21875 0.15625 -0.3125 0.453125q-0.09375 0.296875 -0.09375 0.703125l0 0.46875l-1.703125 -0.078125q0.03125 -1.53125 0.703125 -2.25q0.671875 -0.734375 2.078125 -0.734375q1.375 0 1.953125 0.75q0.578125 0.75 0.578125 2.171875l0 4.234375q0 0.421875 0.015625 0.828125q0.03125 0.40625 0.0625 0.75q0.046875 0.34375 0.078125 0.640625l-1.5625 0q-0.046875 -0.25 -0.125 -0.640625q-0.0625 -0.40625 -0.09375 -0.71875q-0.171875 0.546875 -0.625 1.015625q-0.453125 0.46875 -1.25 0.46875zm0.671875 -1.46875q0.25 0 0.46875 -0.140625q0.234375 -0.140625 0.40625 -0.328125q0.171875 -0.1875 0.234375 -0.296875l0 -2.625q-0.390625 0.21875 -0.75 0.453125q-0.34375 0.21875 -0.609375 0.46875q-0.265625 0.25 -0.421875 0.5625q-0.140625 0.3125 -0.140625 0.703125q0 0.5625 0.203125 0.890625q0.203125 0.3125 0.609375 0.3125z" fill-rule="nonzero"/><path fill="#000000" fill-opacity="0.0" d="m345.95538 186.10553l77.35434 0l0 31.905518l-77.35434 0z" fill-rule="evenodd"/><path fill="#000000" d="m355.67413 212.77803l0 -1.296875q0.625 0 0.984375 -0.0625q0.375 -0.0625 0.53125 -0.21875q0.171875 -0.140625 0.171875 -0.421875q0 -0.140625 -0.125 -0.625q-0.109375 -0.5 -0.234375 -1.0625l-1.859375 -7.875l1.734375 0l1.25 6.90625l1.203125 -6.90625l1.71875 0l-2.203125 9.765625q-0.140625 0.671875 -0.53125 1.0625q-0.390625 0.390625 -0.984375 0.5625q-0.59375 0.171875 -1.453125 0.171875l-0.203125 0zm6.412628 0.734375l0 -12.296875l1.71875 0l0 0.734375q0.296875 -0.34375 0.734375 -0.59375q0.4375 -0.265625 1.03125 -0.265625q0.71875 0 1.140625 0.375q0.421875 0.375 0.625 0.953125q0.203125 0.5625 0.265625 1.15625q0.078125 0.578125 0.078125 0.984375l0 2.25q0 0.96875 -0.203125 1.84375q-0.1875 0.875 -0.6875 1.40625q-0.5 0.53125 -1.421875 0.53125q-0.5 0 -0.890625 -0.25q-0.375 -0.25 -0.671875 -0.5625l0 3.734375l-1.71875 0zm2.953125 -4.265625q0.4375 0 0.625 -0.328125q0.203125 -0.328125 0.25 -0.875q0.046875 -0.5625 0.046875 -1.234375l0 -2.25q0 -0.578125 -0.0625 -1.0625q-0.0625 -0.484375 -0.28125 -0.765625q-0.203125 -0.296875 -0.640625 -0.296875q-0.34375 0 -0.65625 0.140625q-0.296875 0.140625 -0.515625 0.34375l0 5.921875q0.234375 0.171875 0.53125 0.296875q0.3125 0.109375 0.703125 0.109375zm6.729767 1.34375q-1.015625 0 -1.609375 -0.40625q-0.59375 -0.421875 -0.84375 -1.1875q-0.25 -0.765625 -0.25 -1.8125l0 -2.6875q0 -1.046875 0.25 -1.8125q0.25 -0.765625 0.84375 -1.171875q0.59375 -0.421875 1.609375 -0.421875q1.03125 0 1.609375 0.421875q0.578125 0.40625 0.828125 1.171875q0.25 0.765625 0.25 1.8125l0 2.6875q0 1.046875 -0.25 1.8125q-0.25 0.765625 -0.828125 1.1875q-0.578125 0.40625 -1.609375 0.40625zm0 -1.265625q0.5 0 0.6875 -0.28125q0.203125 -0.296875 0.25 -0.765625q0.046875 -0.46875 0.046875 -0.984375l0 -2.890625q0 -0.53125 -0.046875 -0.984375q-0.046875 -0.46875 -0.25 -0.765625q-0.1875 -0.296875 -0.6875 -0.296875q-0.5 0 -0.703125 0.296875q-0.203125 0.296875 -0.25 0.765625q-0.03125 0.453125 -0.03125 0.984375l0 2.890625q0 0.515625 0.03125 0.984375q0.046875 0.46875 0.25 0.765625q0.203125 0.28125 0.703125 0.28125zm4.2531433 1.140625l0 -9.25l2.59375 0q0.953125 0 1.484375 0.3125q0.53125 0.3125 0.765625 0.828125q0.234375 0.5 0.25 1.0625q0.015625 0.6875 -0.234375 1.234375q-0.234375 0.546875 -0.984375 0.765625q0.578125 0.125 0.890625 0.484375q0.3125 0.359375 0.421875 0.859375q0.125 0.484375 0.125 1.015625q0 0.796875 -0.234375 1.40625q-0.21875 0.609375 -0.796875 0.953125q-0.5625 0.328125 -1.609375 0.328125l-2.671875 0zm1.6875 -1.296875l0.609375 0q0.359375 0 0.65625 -0.09375q0.3125 -0.109375 0.5 -0.421875q0.1875 -0.328125 0.1875 -0.9375q0 -0.71875 -0.171875 -1.046875q-0.171875 -0.328125 -0.453125 -0.40625q-0.28125 -0.078125 -0.640625 -0.078125l-0.6875 0l0 2.984375zm0 -4.21875l0.828125 0q0.5 0 0.78125 -0.28125q0.296875 -0.296875 0.296875 -1.03125q0 -0.65625 -0.34375 -0.90625q-0.328125 -0.265625 -0.90625 -0.265625l-0.65625 0l0 2.484375zm7.5150146 5.640625q-1.078125 0 -1.671875 -0.421875q-0.59375 -0.421875 -0.828125 -1.25q-0.234375 -0.828125 -0.234375 -2.015625l0 -2.125q0 -1.21875 0.234375 -2.03125q0.25 -0.828125 0.84375 -1.234375q0.609375 -0.421875 1.65625 -0.421875q1.171875 0 1.71875 0.484375q0.5625 0.46875 0.734375 1.375q0.171875 0.90625 0.171875 2.171875l0 0.75l-3.640625 0l0 1.859375q0 0.5625 0.09375 0.921875q0.109375 0.34375 0.34375 0.515625q0.234375 0.15625 0.59375 0.15625q0.390625 0 0.578125 -0.171875q0.203125 -0.1875 0.28125 -0.53125q0.078125 -0.34375 0.078125 -0.8125l0 -0.5625l1.65625 0l0 0.359375q0 1.390625 -0.59375 2.1875q-0.59375 0.796875 -2.015625 0.796875zm-1.015625 -5.640625l1.96875 0l0 -0.84375q0 -0.5625 -0.078125 -0.953125q-0.0625 -0.40625 -0.265625 -0.59375q-0.1875 -0.203125 -0.625 -0.203125q-0.421875 0 -0.640625 0.1875q-0.203125 0.1875 -0.28125 0.65625q-0.078125 0.453125 -0.078125 1.25l0 0.5zm5.189148 5.515625l0 -9.25l1.71875 0l0 3.890625l2.1875 0l0 -3.890625l1.71875 0l0 9.25l-1.71875 0l0 -4.109375l-2.1875 0l0 4.109375l-1.71875 0zm7.343994 0l0 -9.25l1.71875 0l0 3.828125q0.03125 0 0.078125 0q0.0625 0 0.109375 0q0.046875 0 0.078125 0q0.953125 0.015625 1.609375 0.140625q0.671875 0.109375 1.078125 0.40625q0.421875 0.296875 0.609375 0.828125q0.203125 0.515625 0.203125 1.328125q0 0.75 -0.203125 1.28125q-0.1875 0.515625 -0.625 0.84375q-0.421875 0.3125 -1.125 0.453125q-0.703125 0.140625 -1.71875 0.140625l-1.8125 0zm1.71875 -1.015625l0.09375 0q0.8125 0 1.28125 -0.140625q0.46875 -0.140625 0.65625 -0.515625q0.1875 -0.375 0.1875 -1.0625q0 -0.625 -0.171875 -0.984375q-0.15625 -0.359375 -0.609375 -0.53125q-0.4375 -0.171875 -1.265625 -0.171875q-0.015625 0 -0.078125 0q-0.0625 0 -0.09375 0l0 3.40625z" fill-rule="nonzero"/><path fill="#ffffff" d="m344.79266 137.70079l0 0c0 -2.704895 2.192749 -4.897644 4.8976135 -4.897644l0 0c1.2989502 0 2.5446777 0.51600647 3.4631653 1.434494c0.91848755 0.9184723 1.4344788 2.164215 1.4344788 3.46315l0 0c0 2.704895 -2.192749 4.897629 -4.897644 4.897629l0 0c-2.7048645 0 -4.8976135 -2.1927338 -4.8976135 -4.897629z" fill-rule="evenodd"/><path stroke="#000000" stroke-width="1.0" stroke-linejoin="round" stroke-linecap="butt" d="m344.79266 137.70079l0 0c0 -2.704895 2.192749 -4.897644 4.8976135 -4.897644l0 0c1.2989502 0 2.5446777 0.51600647 3.4631653 1.434494c0.91848755 0.9184723 1.4344788 2.164215 1.4344788 3.46315l0 0c0 2.704895 -2.192749 4.897629 -4.897644 4.897629l0 0c-2.7048645 0 -4.8976135 -2.1927338 -4.8976135 -4.897629z" fill-rule="evenodd"/><path fill="#000000" fill-opacity="0.0" d="m349.69028 142.59842l0.7559204 40.755905" fill-rule="evenodd"/><path stroke="#000000" stroke-width="1.0" stroke-linejoin="round" stroke-linecap="butt" d="m349.69028 142.59842l0.6446533 34.756943" fill-rule="evenodd"/><path fill="#000000" stroke="#000000" stroke-width="1.0" stroke-linecap="butt" d="m348.68347 177.38599l1.7356262 4.5066986l1.5672913 -4.5679474z" fill-rule="evenodd"/><path fill="#000000" fill-opacity="0.0" d="m337.95538 54.631462l77.35434 0l0 31.90551l-77.35434 0z" fill-rule="evenodd"/><path fill="#000000" d="m346.98663 81.35084l0 -3.5q0.484375 -0.359375 0.875 -0.875q0.40625 -0.515625 0.703125 -1.296875q0.3125 -0.78125 0.484375 -1.9375q0.171875 -1.15625 0.1875 -2.78125l0.03125 -1.21875l4.1875 0l0 8.03125l1.109375 0l0 3.578125l-1.234375 0l-0.15625 -2.359375l-4.796875 0l-0.140625 2.359375l-1.25 0zm1.671875 -3.578125l3.140625 0l0 -6.796875l-1.203125 0l-0.03125 0.328125q-0.015625 1.703125 -0.171875 2.828125q-0.140625 1.125 -0.40625 1.84375q-0.265625 0.71875 -0.609375 1.140625q-0.34375 0.40625 -0.71875 0.65625zm8.76413 1.34375q-0.546875 0 -0.96875 -0.3125q-0.40625 -0.3125 -0.65625 -0.796875q-0.234375 -0.484375 -0.234375 -1.03125q0 -0.859375 0.28125 -1.453125q0.296875 -0.59375 0.796875 -1.0q0.5 -0.40625 1.15625 -0.703125q0.671875 -0.3125 1.40625 -0.609375l0 -0.65625q0 -0.546875 -0.0625 -0.921875q-0.0625 -0.375 -0.265625 -0.546875q-0.1875 -0.1875 -0.59375 -0.1875q-0.34375 0 -0.5625 0.15625q-0.21875 0.15625 -0.3125 0.453125q-0.09375 0.296875 -0.09375 0.703125l0 0.46875l-1.703125 -0.078125q0.03125 -1.53125 0.703125 -2.25q0.671875 -0.734375 2.078125 -0.734375q1.375 0 1.953125 0.75q0.578125 0.75 0.578125 2.171875l0 4.234375q0 0.421875 0.015625 0.828125q0.03125 0.40625 0.0625 0.75q0.046875 0.34375 0.078125 0.640625l-1.5625 0q-0.046875 -0.25 -0.125 -0.640625q-0.0625 -0.40625 -0.09375 -0.71875q-0.171875 0.546875 -0.625 1.015625q-0.453125 0.46875 -1.25 0.46875zm0.671875 -1.46875q0.25 0 0.46875 -0.140625q0.234375 -0.140625 0.40625 -0.328125q0.171875 -0.1875 0.234375 -0.296875l0 -2.625q-0.390625 0.21875 -0.75 0.453125q-0.34375 0.21875 -0.609375 0.46875q-0.265625 0.25 -0.421875 0.5625q-0.140625 0.3125 -0.140625 0.703125q0 0.5625 0.203125 0.890625q0.203125 0.3125 0.609375 0.3125zm4.4722595 1.34375l0 -9.25l1.4375 0l0 6.21875l2.796875 -6.21875l1.34375 0l0 9.25l-1.40625 0l0 -6.265625l-2.78125 6.265625l-1.390625 0zm2.84375 -10.25q-1.15625 0 -1.625 -0.625q-0.46875 -0.625 -0.46875 -1.5625l0.984375 0q0.015625 0.578125 0.265625 0.890625q0.25 0.3125 0.84375 0.3125q0.609375 0 0.859375 -0.3125q0.25 -0.328125 0.25 -0.890625l1.0 0q0 0.9375 -0.46875 1.5625q-0.46875 0.625 -1.640625 0.625zm4.4682617 10.25l0 -9.25l2.59375 0q0.953125 0 1.484375 0.3125q0.53125 0.3125 0.765625 0.828125q0.234375 0.5 0.25 1.0625q0.015625 0.6875 -0.234375 1.234375q-0.234375 0.546875 -0.984375 0.765625q0.578125 0.125 0.890625 0.484375q0.3125 0.359375 0.421875 0.859375q0.125 0.484375 0.125 1.015625q0 0.796875 -0.234375 1.40625q-0.21875 0.609375 -0.796875 0.953125q-0.5625 0.328125 -1.609375 0.328125l-2.671875 0zm1.6875 -1.296875l0.609375 0q0.359375 0 0.65625 -0.09375q0.3125 -0.109375 0.5 -0.421875q0.1875 -0.328125 0.1875 -0.9375q0 -0.71875 -0.171875 -1.046875q-0.171875 -0.328125 -0.453125 -0.40625q-0.28125 -0.078125 -0.640625 -0.078125l-0.6875 0l0 2.984375zm0 -4.21875l0.828125 0q0.5 0 0.78125 -0.28125q0.296875 -0.296875 0.296875 -1.03125q0 -0.65625 -0.34375 -0.90625q-0.328125 -0.265625 -0.90625 -0.265625l-0.65625 0l0 2.484375zm7.5150146 5.640625q-1.078125 0 -1.671875 -0.421875q-0.59375 -0.421875 -0.828125 -1.25q-0.234375 -0.828125 -0.234375 -2.015625l0 -2.125q0 -1.21875 0.234375 -2.03125q0.25 -0.828125 0.84375 -1.234375q0.609375 -0.421875 1.65625 -0.421875q1.171875 0 1.71875 0.484375q0.5625 0.46875 0.734375 1.375q0.171875 0.90625 0.171875 2.171875l0 0.75l-3.640625 0l0 1.859375q0 0.5625 0.09375 0.921875q0.109375 0.34375 0.34375 0.515625q0.234375 0.15625 0.59375 0.15625q0.390625 0 0.578125 -0.171875q0.203125 -0.1875 0.28125 -0.53125q0.078125 -0.34375 0.078125 -0.8125l0 -0.5625l1.65625 0l0 0.359375q0 1.390625 -0.59375 2.1875q-0.59375 0.796875 -2.015625 0.796875zm-1.015625 -5.640625l1.96875 0l0 -0.84375q0 -0.5625 -0.078125 -0.953125q-0.0625 -0.40625 -0.265625 -0.59375q-0.1875 -0.203125 -0.625 -0.203125q-0.421875 0 -0.640625 0.1875q-0.203125 0.1875 -0.28125 0.65625q-0.078125 0.453125 -0.078125 1.25l0 0.5zm5.189148 8.5625l0 -12.296875l1.71875 0l0 0.734375q0.296875 -0.34375 0.734375 -0.59375q0.4375 -0.265625 1.03125 -0.265625q0.71875 0 1.140625 0.375q0.421875 0.375 0.625 0.953125q0.203125 0.5625 0.265625 1.15625q0.078125 0.578125 0.078125 0.984375l0 2.25q0 0.96875 -0.203125 1.84375q-0.1875 0.875 -0.6875 1.40625q-0.5 0.53125 -1.421875 0.53125q-0.5 0 -0.890625 -0.25q-0.375 -0.25 -0.671875 -0.5625l0 3.734375l-1.71875 0zm2.953125 -4.265625q0.4375 0 0.625 -0.328125q0.203125 -0.328125 0.25 -0.875q0.046875 -0.5625 0.046875 -1.234375l0 -2.25q0 -0.578125 -0.0625 -1.0625q-0.0625 -0.484375 -0.28125 -0.765625q-0.203125 -0.296875 -0.640625 -0.296875q-0.34375 0 -0.65625 0.140625q-0.296875 0.140625 -0.515625 0.34375l0 5.921875q0.234375 0.171875 0.53125 0.296875q0.3125 0.109375 0.703125 0.109375zm4.182892 1.21875l0 -9.25l1.71875 0l0 3.828125q0.03125 0 0.078125 0q0.0625 0 0.109375 0q0.046875 0 0.078125 0q0.953125 0.015625 1.609375 0.140625q0.671875 0.109375 1.078125 0.40625q0.421875 0.296875 0.609375 0.828125q0.203125 0.515625 0.203125 1.328125q0 0.75 -0.203125 1.28125q-0.1875 0.515625 -0.625 0.84375q-0.421875 0.3125 -1.125 0.453125q-0.703125 0.140625 -1.71875 0.140625l-1.8125 0zm1.71875 -1.015625l0.09375 0q0.8125 0 1.28125 -0.140625q0.46875 -0.140625 0.65625 -0.515625q0.1875 -0.375 0.1875 -1.0625q0 -0.625 -0.171875 -0.984375q-0.15625 -0.359375 -0.609375 -0.53125q-0.4375 -0.171875 -1.265625 -0.171875q-0.015625 0 -0.078125 0q-0.0625 0 -0.09375 0l0 3.40625zm4.8125 1.015625l0 -9.25l1.71875 0l0 9.25l-1.71875 0z" fill-rule="nonzero"/><path fill="#ffffff" d="m98.97638 285.45145l0 0c0 -2.704895 2.192749 -4.897644 4.8976364 -4.897644l0 0c1.2989349 0 2.54467 0.5159912 3.46315 1.4344788c0.91848755 0.91848755 1.4344864 2.164215 1.4344864 3.4631653l0 0c0 2.704895 -2.192749 4.897644 -4.8976364 4.897644l0 0c-2.7048874 0 -4.8976364 -2.192749 -4.8976364 -4.897644z" fill-rule="evenodd"/><path stroke="#000000" stroke-width="1.0" stroke-linejoin="round" stroke-linecap="butt" d="m98.97638 285.45145l0 0c0 -2.704895 2.192749 -4.897644 4.8976364 -4.897644l0 0c1.2989349 0 2.54467 0.5159912 3.46315 1.4344788c0.91848755 0.91848755 1.4344864 2.164215 1.4344864 3.4631653l0 0c0 2.704895 -2.192749 4.897644 -4.8976364 4.897644l0 0c-2.7048874 0 -4.8976364 -2.192749 -4.8976364 -4.897644z" fill-rule="evenodd"/><path fill="#000000" fill-opacity="0.0" d="m103.874016 280.5538l-0.8503952 -37.417313" fill-rule="evenodd"/><path stroke="#000000" stroke-width="1.0" stroke-linejoin="round" stroke-linecap="butt" d="m103.874016 280.5538l-0.71406555 -31.418884" fill-rule="evenodd"/><path fill="#000000" stroke="#000000" stroke-width="1.0" stroke-linecap="butt" d="m104.81126 249.0974l-1.7544174 -4.4993896l-1.5481949 4.574463z" fill-rule="evenodd"/><path fill="#000000" fill-opacity="0.0" d="m41.95538 310.63147l77.354324 0l0 31.905518l-77.354324 0z" fill-rule="evenodd"/><path fill="#000000" d="m55.002254 338.03833l0 -3.5625l-0.15625 0q-0.53125 0 -1.09375 -0.125q-0.5625 -0.140625 -1.046875 -0.5q-0.46875 -0.375 -0.765625 -1.078125q-0.296875 -0.703125 -0.296875 -1.828125l0 -1.671875q0 -0.890625 0.25 -1.53125q0.25 -0.640625 0.6875 -1.046875q0.4375 -0.40625 1.0 -0.59375q0.578125 -0.203125 1.21875 -0.203125l0.203125 0l0 -3.859375l1.578125 0l0 3.859375l0.28125 0q0.84375 0 1.546875 0.34375q0.703125 0.34375 1.125 1.09375q0.4375 0.75 0.4375 1.9375l0 1.671875q0 1.125 -0.296875 1.828125q-0.28125 0.703125 -0.765625 1.078125q-0.46875 0.359375 -1.015625 0.5q-0.546875 0.125 -1.078125 0.125l-0.234375 0l0 3.5625l-1.578125 0zm-0.109375 -4.78125l0.109375 0l0 -6.234375l-0.15625 0q-0.5 0 -0.875 0.171875q-0.359375 0.15625 -0.578125 0.59375q-0.203125 0.421875 -0.203125 1.234375l0 1.90625q0 0.921875 0.1875 1.4375q0.203125 0.5 0.578125 0.703125q0.390625 0.1875 0.9375 0.1875zm1.6875 0l0.109375 0q0.546875 0 0.9375 -0.1875q0.390625 -0.203125 0.578125 -0.703125q0.203125 -0.515625 0.203125 -1.4375l0 -1.90625q0 -0.8125 -0.203125 -1.234375q-0.203125 -0.4375 -0.59375 -0.59375q-0.375 -0.171875 -0.875 -0.171875l-0.15625 0l0 6.234375zm4.3366394 1.8125l0 -1.296875q0.484375 0 0.765625 -0.1875q0.28125 -0.1875 0.421875 -0.640625q0.15625 -0.46875 0.234375 -1.234375q0.09375 -0.78125 0.15625 -1.953125l0.203125 -4.015625l4.843754 0l0 9.25l-1.703125 0l0 -7.953125l-1.640625 0l-0.140625 2.71875q-0.078128815 1.59375 -0.23437881 2.640625q-0.140625 1.03125 -0.46875 1.609375q-0.3125 0.578125 -0.859375 0.828125q-0.53125 0.234375 -1.375 0.234375l-0.203125 0zm10.900639 0.046875q-1.015625 0 -1.609375 -0.40625q-0.59375 -0.421875 -0.84375 -1.1875q-0.25 -0.765625 -0.25 -1.8125l0 -2.6875q0 -1.046875 0.25 -1.8125q0.25 -0.765625 0.84375 -1.171875q0.59375 -0.421875 1.609375 -0.421875q1.03125 0 1.609375 0.421875q0.578125 0.40625 0.828125 1.171875q0.25 0.765625 0.25 1.8125l0 2.6875q0 1.046875 -0.25 1.8125q-0.25 0.765625 -0.828125 1.1875q-0.578125 0.40625 -1.609375 0.40625zm0 -1.265625q0.5 0 0.6875 -0.28125q0.203125 -0.296875 0.25 -0.765625q0.046875 -0.46875 0.046875 -0.984375l0 -2.890625q0 -0.53125 -0.046875 -0.984375q-0.046875 -0.46875 -0.25 -0.765625q-0.1875 -0.296875 -0.6875 -0.296875q-0.5 0 -0.703125 0.296875q-0.203125 0.296875 -0.25 0.765625q-0.03125 0.453125 -0.03125 0.984375l0 2.890625q0 0.515625 0.03125 0.984375q0.046875 0.46875 0.25 0.765625q0.203125 0.28125 0.703125 0.28125zm5.1720123 1.140625l0 -7.96875l-1.734375 0l0 -1.28125l5.1875 0l0 1.28125l-1.75 0l0 7.96875l-1.703125 0zm6.9556427 0.125q-1.078125 0 -1.671875 -0.421875q-0.59375 -0.421875 -0.828125 -1.25q-0.234375 -0.828125 -0.234375 -2.015625l0 -2.125q0 -1.21875 0.234375 -2.03125q0.25 -0.828125 0.84375 -1.234375q0.609375 -0.421875 1.65625 -0.421875q1.171875 0 1.71875 0.484375q0.5625 0.46875 0.734375 1.375q0.171875 0.90625 0.171875 2.171875l0 0.75l-3.640625 0l0 1.859375q0 0.5625 0.09375 0.921875q0.109375 0.34375 0.34375 0.515625q0.234375 0.15625 0.59375 0.15625q0.390625 0 0.578125 -0.171875q0.203125 -0.1875 0.28125 -0.53125q0.078125 -0.34375 0.078125 -0.8125l0 -0.5625l1.65625 0l0 0.359375q0 1.390625 -0.59375 2.1875q-0.59375 0.796875 -2.015625 0.796875zm-1.015625 -5.640625l1.96875 0l0 -0.84375q0 -0.5625 -0.078125 -0.953125q-0.0625 -0.40625 -0.265625 -0.59375q-0.1875 -0.203125 -0.625 -0.203125q-0.421875 0 -0.640625 0.1875q-0.203125 0.1875 -0.28125 0.65625q-0.078125 0.453125 -0.078125 1.25l0 0.5zm5.1891327 8.5625l0 -12.296875l1.71875 0l0 0.734375q0.296875 -0.34375 0.734375 -0.59375q0.4375 -0.265625 1.03125 -0.265625q0.71875 0 1.140625 0.375q0.421875 0.375 0.625 0.953125q0.203125 0.5625 0.265625 1.15625q0.078125 0.578125 0.078125 0.984375l0 2.25q0 0.96875 -0.203125 1.84375q-0.1875 0.875 -0.6875 1.40625q-0.5 0.53125 -1.421875 0.53125q-0.5 0 -0.890625 -0.25q-0.375 -0.25 -0.671875 -0.5625l0 3.734375l-1.71875 0zm2.953125 -4.265625q0.4375 0 0.625 -0.328125q0.203125 -0.328125 0.25 -0.875q0.046875 -0.5625 0.046875 -1.234375l0 -2.25q0 -0.578125 -0.0625 -1.0625q-0.0625 -0.484375 -0.28125 -0.765625q-0.203125 -0.296875 -0.640625 -0.296875q-0.34375 0 -0.65625 0.140625q-0.296875 0.140625 -0.515625 0.34375l0 5.921875q0.234375 0.171875 0.53125 0.296875q0.3125 0.109375 0.703125 0.109375zm4.182892 1.21875l0 -9.25l1.71875 0l0 3.828125q0.03125 0 0.078125 0q0.0625 0 0.109375 0q0.046875 0 0.078125 0q0.953125 0.015625 1.609375 0.140625q0.671875 0.109375 1.078125 0.40625q0.421875 0.296875 0.609375 0.828125q0.203125 0.515625 0.203125 1.328125q0 0.75 -0.203125 1.28125q-0.1875 0.515625 -0.625 0.84375q-0.421875 0.3125 -1.125 0.453125q-0.703125 0.140625 -1.71875 0.140625l-1.8125 0zm1.71875 -1.015625l0.09375 0q0.8125 0 1.28125 -0.140625q0.46875 -0.140625 0.65625 -0.515625q0.1875 -0.375 0.1875 -1.0625q0 -0.625 -0.171875 -0.984375q-0.15625 -0.359375 -0.609375 -0.53125q-0.4375 -0.171875 -1.265625 -0.171875q-0.015625 0 -0.078125 0q-0.0625 0 -0.09375 0l0 3.40625zm4.8125 1.015625l0 -9.25l1.71875 0l0 9.25l-1.71875 0z" fill-rule="nonzero"/><path fill="#000000" fill-opacity="0.0" d="m183.49606 54.632545l109.38583 0l0 31.90551l-109.38583 0z" fill-rule="evenodd"/><path fill="#000000" d="m194.93356 78.992546l0 -11.609375l-2.203125 0l0 -1.34375l6.140625 0l0 1.34375l-2.140625 0l0 11.609375l-1.796875 0zm4.889267 2.3125l0 -1.296875q0.625 0 0.984375 -0.0625q0.375 -0.0625 0.53125 -0.21875q0.171875 -0.140625 0.171875 -0.421875q0 -0.140625 -0.125 -0.625q-0.109375 -0.5 -0.234375 -1.0625l-1.859375 -7.875l1.734375 0l1.25 6.90625l1.203125 -6.90625l1.71875 0l-2.203125 9.765625q-0.140625 0.671875 -0.53125 1.0625q-0.390625 0.390625 -0.984375 0.5625q-0.59375 0.171875 -1.453125 0.171875l-0.203125 0zm7.4595184 -2.3125l0 -7.96875l-1.734375 0l0 -1.28125l5.1875 0l0 1.28125l-1.75 0l0 7.96875l-1.703125 0zm8.153137 0l0 -9.25l1.71875 0l0 3.890625l2.1875 0l0 -3.890625l1.71875 0l0 9.25l-1.71875 0l0 -4.109375l-2.1875 0l0 4.109375l-1.71875 0zm9.906509 0.125q-1.078125 0 -1.671875 -0.421875q-0.59375 -0.421875 -0.828125 -1.25q-0.234375 -0.828125 -0.234375 -2.015625l0 -2.125q0 -1.21875 0.234375 -2.03125q0.25 -0.828125 0.84375 -1.234375q0.609375 -0.421875 1.65625 -0.421875q1.171875 0 1.71875 0.484375q0.5625 0.46875 0.734375 1.375q0.171875 0.90625 0.171875 2.171875l0 0.75l-3.640625 0l0 1.859375q0 0.5625 0.09375 0.921875q0.109375 0.34375 0.34375 0.515625q0.234375 0.15625 0.59375 0.15625q0.390625 0 0.578125 -0.171875q0.203125 -0.1875 0.28125 -0.53125q0.078125 -0.34375 0.078125 -0.8125l0 -0.5625l1.65625 0l0 0.359375q0 1.390625 -0.59375 2.1875q-0.59375 0.796875 -2.015625 0.796875zm-1.015625 -5.640625l1.96875 0l0 -0.84375q0 -0.5625 -0.078125 -0.953125q-0.0625 -0.40625 -0.265625 -0.59375q-0.1875 -0.203125 -0.625 -0.203125q-0.421875 0 -0.640625 0.1875q-0.203125 0.1875 -0.28125 0.65625q-0.078125 0.453125 -0.078125 1.25l0 0.5zm8.259384 5.59375l0 -1.296875q0.484375 0 0.765625 -0.1875q0.28125 -0.1875 0.421875 -0.640625q0.15625 -0.46875 0.234375 -1.234375q0.09375 -0.78125 0.15625 -1.953125l0.203125 -4.015625l4.84375 0l0 9.25l-1.703125 0l0 -7.953125l-1.640625 0l-0.140625 2.71875q-0.078125 1.59375 -0.234375 2.640625q-0.140625 1.03125 -0.46875 1.609375q-0.3125 0.578125 -0.859375 0.828125q-0.53125 0.234375 -1.375 0.234375l-0.203125 0zm10.91626 0.046875q-1.078125 0 -1.671875 -0.421875q-0.59375 -0.421875 -0.828125 -1.25q-0.234375 -0.828125 -0.234375 -2.015625l0 -2.125q0 -1.21875 0.234375 -2.03125q0.25 -0.828125 0.84375 -1.234375q0.609375 -0.421875 1.65625 -0.421875q1.171875 0 1.71875 0.484375q0.5625 0.46875 0.734375 1.375q0.171875 0.90625 0.171875 2.171875l0 0.75l-3.640625 0l0 1.859375q0 0.5625 0.09375 0.921875q0.109375 0.34375 0.34375 0.515625q0.234375 0.15625 0.59375 0.15625q0.390625 0 0.578125 -0.171875q0.203125 -0.1875 0.28125 -0.53125q0.078125 -0.34375 0.078125 -0.8125l0 -0.5625l1.65625 0l0 0.359375q0 1.390625 -0.59375 2.1875q-0.59375 0.796875 -2.015625 0.796875zm-1.015625 -5.640625l1.96875 0l0 -0.84375q0 -0.5625 -0.078125 -0.953125q-0.0625 -0.40625 -0.265625 -0.59375q-0.1875 -0.203125 -0.625 -0.203125q-0.421875 0 -0.640625 0.1875q-0.203125 0.1875 -0.28125 0.65625q-0.078125 0.453125 -0.078125 1.25l0 0.5zm6.1720123 5.515625l0 -7.96875l-1.734375 0l0 -1.28125l5.1875 0l0 1.28125l-1.75 0l0 7.96875l-1.703125 0zm6.1610107 0.125q-0.546875 0 -0.96875 -0.3125q-0.40625 -0.3125 -0.65625 -0.796875q-0.234375 -0.484375 -0.234375 -1.03125q0 -0.859375 0.28125 -1.453125q0.296875 -0.59375 0.796875 -1.0q0.5 -0.40625 1.15625 -0.703125q0.671875 -0.3125 1.4062347 -0.609375l0 -0.65625q0 -0.546875 -0.0625 -0.921875q-0.0625 -0.375 -0.265625 -0.546875q-0.1875 -0.1875 -0.59373474 -0.1875q-0.34375 0 -0.5625 0.15625q-0.21875 0.15625 -0.3125 0.453125q-0.09375 0.296875 -0.09375 0.703125l0 0.46875l-1.703125 -0.078125q0.03125 -1.53125 0.703125 -2.25q0.671875 -0.734375 2.078125 -0.734375q1.3749847 0 1.9531097 0.75q0.578125 0.75 0.578125 2.171875l0 4.234375q0 0.421875 0.015625 0.828125q0.03125 0.40625 0.0625 0.75q0.046875 0.34375 0.078125 0.640625l-1.5625 0q-0.046875 -0.25 -0.125 -0.640625q-0.0625 -0.40625 -0.09375 -0.71875q-0.171875 0.546875 -0.625 1.015625q-0.45310974 0.46875 -1.2499847 0.46875zm0.671875 -1.46875q0.25 0 0.46875 -0.140625q0.23435974 -0.140625 0.40623474 -0.328125q0.171875 -0.1875 0.234375 -0.296875l0 -2.625q-0.390625 0.21875 -0.74998474 0.453125q-0.34375 0.21875 -0.609375 0.46875q-0.265625 0.25 -0.421875 0.5625q-0.140625 0.3125 -0.140625 0.703125q0 0.5625 0.203125 0.890625q0.203125 0.3125 0.609375 0.3125zm7.0347443 1.46875q-1.078125 0 -1.671875 -0.421875q-0.59375 -0.421875 -0.828125 -1.25q-0.234375 -0.828125 -0.234375 -2.015625l0 -2.125q0 -1.21875 0.234375 -2.03125q0.25 -0.828125 0.84375 -1.234375q0.609375 -0.421875 1.65625 -0.421875q1.171875 0 1.71875 0.484375q0.5625 0.46875 0.734375 1.375q0.171875 0.90625 0.171875 2.171875l0 0.75l-3.640625 0l0 1.859375q0 0.5625 0.09375 0.921875q0.109375 0.34375 0.34375 0.515625q0.234375 0.15625 0.59375 0.15625q0.390625 0 0.578125 -0.171875q0.203125 -0.1875 0.28125 -0.53125q0.078125 -0.34375 0.078125 -0.8125l0 -0.5625l1.65625 0l0 0.359375q0 1.390625 -0.59375 2.1875q-0.59375 0.796875 -2.015625 0.796875zm-1.015625 -5.640625l1.96875 0l0 -0.84375q0 -0.5625 -0.078125 -0.953125q-0.0625 -0.40625 -0.265625 -0.59375q-0.1875 -0.203125 -0.625 -0.203125q-0.421875 0 -0.640625 0.1875q-0.203125 0.1875 -0.28125 0.65625q-0.078125 0.453125 -0.078125 1.25l0 0.5zm5.142273 5.515625l0.09375 -9.25l1.265625 0l2.046875 5.6875l2.0625 -5.6875l1.265625 0l0.09375 9.25l-1.4375 0l0 -5.515625l-1.703125 4.609375l-0.53125 0l-1.71875 -4.578125l0 5.484375l-1.4375 0z" fill-rule="nonzero"/><path fill="#000000" fill-opacity="0.0" d="m183.49606 318.63254l109.38583 0l0 31.905518l-109.38583 0z" fill-rule="evenodd"/><path fill="#000000" d="m194.93356 342.99255l0 -11.609375l-2.203125 0l0 -1.34375l6.140625 0l0 1.34375l-2.140625 0l0 11.609375l-1.796875 0zm4.889267 2.3125l0 -1.296875q0.625 0 0.984375 -0.0625q0.375 -0.0625 0.53125 -0.21875q0.171875 -0.140625 0.171875 -0.421875q0 -0.140625 -0.125 -0.625q-0.109375 -0.5 -0.234375 -1.0625l-1.859375 -7.875l1.734375 0l1.25 6.90625l1.203125 -6.90625l1.71875 0l-2.203125 9.765625q-0.140625 0.671875 -0.53125 1.0625q-0.390625 0.390625 -0.984375 0.5625q-0.59375 0.171875 -1.453125 0.171875l-0.203125 0zm7.4595184 -2.3125l0 -7.96875l-1.734375 0l0 -1.28125l5.1875 0l0 1.28125l-1.75 0l0 7.96875l-1.703125 0zm8.153137 0l0 -9.25l1.71875 0l0 3.890625l2.1875 0l0 -3.890625l1.71875 0l0 9.25l-1.71875 0l0 -4.109375l-2.1875 0l0 4.109375l-1.71875 0zm9.906509 0.125q-1.078125 0 -1.671875 -0.421875q-0.59375 -0.421875 -0.828125 -1.25q-0.234375 -0.828125 -0.234375 -2.015625l0 -2.125q0 -1.21875 0.234375 -2.03125q0.25 -0.828125 0.84375 -1.234375q0.609375 -0.421875 1.65625 -0.421875q1.171875 0 1.71875 0.484375q0.5625 0.46875 0.734375 1.375q0.171875 0.90625 0.171875 2.171875l0 0.75l-3.640625 0l0 1.859375q0 0.5625 0.09375 0.921875q0.109375 0.34375 0.34375 0.515625q0.234375 0.15625 0.59375 0.15625q0.390625 0 0.578125 -0.171875q0.203125 -0.1875 0.28125 -0.53125q0.078125 -0.34375 0.078125 -0.8125l0 -0.5625l1.65625 0l0 0.359375q0 1.390625 -0.59375 2.1875q-0.59375 0.796875 -2.015625 0.796875zm-1.015625 -5.640625l1.96875 0l0 -0.84375q0 -0.5625 -0.078125 -0.953125q-0.0625 -0.40625 -0.265625 -0.59375q-0.1875 -0.203125 -0.625 -0.203125q-0.421875 0 -0.640625 0.1875q-0.203125 0.1875 -0.28125 0.65625q-0.078125 0.453125 -0.078125 1.25l0 0.5zm8.259384 5.59375l0 -1.296875q0.484375 0 0.765625 -0.1875q0.28125 -0.1875 0.421875 -0.640625q0.15625 -0.46875 0.234375 -1.234375q0.09375 -0.78125 0.15625 -1.953125l0.203125 -4.015625l4.84375 0l0 9.25l-1.703125 0l0 -7.953125l-1.640625 0l-0.140625 2.71875q-0.078125 1.59375 -0.234375 2.640625q-0.140625 1.03125 -0.46875 1.609375q-0.3125 0.578125 -0.859375 0.828125q-0.53125 0.234375 -1.375 0.234375l-0.203125 0zm10.91626 0.046875q-1.078125 0 -1.671875 -0.421875q-0.59375 -0.421875 -0.828125 -1.25q-0.234375 -0.828125 -0.234375 -2.015625l0 -2.125q0 -1.21875 0.234375 -2.03125q0.25 -0.828125 0.84375 -1.234375q0.609375 -0.421875 1.65625 -0.421875q1.171875 0 1.71875 0.484375q0.5625 0.46875 0.734375 1.375q0.171875 0.90625 0.171875 2.171875l0 0.75l-3.640625 0l0 1.859375q0 0.5625 0.09375 0.921875q0.109375 0.34375 0.34375 0.515625q0.234375 0.15625 0.59375 0.15625q0.390625 0 0.578125 -0.171875q0.203125 -0.1875 0.28125 -0.53125q0.078125 -0.34375 0.078125 -0.8125l0 -0.5625l1.65625 0l0 0.359375q0 1.390625 -0.59375 2.1875q-0.59375 0.796875 -2.015625 0.796875zm-1.015625 -5.640625l1.96875 0l0 -0.84375q0 -0.5625 -0.078125 -0.953125q-0.0625 -0.40625 -0.265625 -0.59375q-0.1875 -0.203125 -0.625 -0.203125q-0.421875 0 -0.640625 0.1875q-0.203125 0.1875 -0.28125 0.65625q-0.078125 0.453125 -0.078125 1.25l0 0.5zm6.1720123 5.515625l0 -7.96875l-1.734375 0l0 -1.28125l5.1875 0l0 1.28125l-1.75 0l0 7.96875l-1.703125 0zm6.1610107 0.125q-0.546875 0 -0.96875 -0.3125q-0.40625 -0.3125 -0.65625 -0.796875q-0.234375 -0.484375 -0.234375 -1.03125q0 -0.859375 0.28125 -1.453125q0.296875 -0.59375 0.796875 -1.0q0.5 -0.40625 1.15625 -0.703125q0.671875 -0.3125 1.4062347 -0.609375l0 -0.65625q0 -0.546875 -0.0625 -0.921875q-0.0625 -0.375 -0.265625 -0.546875q-0.1875 -0.1875 -0.59373474 -0.1875q-0.34375 0 -0.5625 0.15625q-0.21875 0.15625 -0.3125 0.453125q-0.09375 0.296875 -0.09375 0.703125l0 0.46875l-1.703125 -0.078125q0.03125 -1.53125 0.703125 -2.25q0.671875 -0.734375 2.078125 -0.734375q1.3749847 0 1.9531097 0.75q0.578125 0.75 0.578125 2.171875l0 4.234375q0 0.421875 0.015625 0.828125q0.03125 0.40625 0.0625 0.75q0.046875 0.34375 0.078125 0.640625l-1.5625 0q-0.046875 -0.25 -0.125 -0.640625q-0.0625 -0.40625 -0.09375 -0.71875q-0.171875 0.546875 -0.625 1.015625q-0.45310974 0.46875 -1.2499847 0.46875zm0.671875 -1.46875q0.25 0 0.46875 -0.140625q0.23435974 -0.140625 0.40623474 -0.328125q0.171875 -0.1875 0.234375 -0.296875l0 -2.625q-0.390625 0.21875 -0.74998474 0.453125q-0.34375 0.21875 -0.609375 0.46875q-0.265625 0.25 -0.421875 0.5625q-0.140625 0.3125 -0.140625 0.703125q0 0.5625 0.203125 0.890625q0.203125 0.3125 0.609375 0.3125zm7.0347443 1.46875q-1.078125 0 -1.671875 -0.421875q-0.59375 -0.421875 -0.828125 -1.25q-0.234375 -0.828125 -0.234375 -2.015625l0 -2.125q0 -1.21875 0.234375 -2.03125q0.25 -0.828125 0.84375 -1.234375q0.609375 -0.421875 1.65625 -0.421875q1.171875 0 1.71875 0.484375q0.5625 0.46875 0.734375 1.375q0.171875 0.90625 0.171875 2.171875l0 0.75l-3.640625 0l0 1.859375q0 0.5625 0.09375 0.921875q0.109375 0.34375 0.34375 0.515625q0.234375 0.15625 0.59375 0.15625q0.390625 0 0.578125 -0.171875q0.203125 -0.1875 0.28125 -0.53125q0.078125 -0.34375 0.078125 -0.8125l0 -0.5625l1.65625 0l0 0.359375q0 1.390625 -0.59375 2.1875q-0.59375 0.796875 -2.015625 0.796875zm-1.015625 -5.640625l1.96875 0l0 -0.84375q0 -0.5625 -0.078125 -0.953125q-0.0625 -0.40625 -0.265625 -0.59375q-0.1875 -0.203125 -0.625 -0.203125q-0.421875 0 -0.640625 0.1875q-0.203125 0.1875 -0.28125 0.65625q-0.078125 0.453125 -0.078125 1.25l0 0.5zm5.142273 5.515625l0.09375 -9.25l1.265625 0l2.046875 5.6875l2.0625 -5.6875l1.265625 0l0.09375 9.25l-1.4375 0l0 -5.515625l-1.703125 4.609375l-0.53125 0l-1.71875 -4.578125l0 5.484375l-1.4375 0z" fill-rule="nonzero"/><path fill="#000000" fill-opacity="0.0" d="m238.5853 218.87401l-0.4094391 55.685043" fill-rule="evenodd"/><path stroke="#000000" stroke-width="1.0" stroke-linejoin="round" stroke-linecap="butt" d="m238.5853 218.87401l-0.3653412 49.685196" fill-rule="evenodd"/><path fill="#000000" stroke="#000000" stroke-width="1.0" stroke-linecap="butt" d="m236.56828 268.54706l1.6183167 4.5501404l1.6850586 -4.5258484z" fill-rule="evenodd"/><path fill="#ffffff" d="m376.79266 121.70079l0 0c0 -2.704895 2.192749 -4.897644 4.8976135 -4.897644l0 0c1.2989502 0 2.5446777 0.51600647 3.4631653 1.4344864c0.91848755 0.91848755 1.4344788 2.1642227 1.4344788 3.4631577l0 0c0 2.7048874 -2.192749 4.8976364 -4.897644 4.8976364l0 0c-2.7048645 0 -4.8976135 -2.192749 -4.8976135 -4.8976364z" fill-rule="evenodd"/><path stroke="#000000" stroke-width="1.0" stroke-linejoin="round" stroke-linecap="butt" d="m376.79266 121.70079l0 0c0 -2.704895 2.192749 -4.897644 4.8976135 -4.897644l0 0c1.2989502 0 2.5446777 0.51600647 3.4631653 1.4344864c0.91848755 0.91848755 1.4344788 2.1642227 1.4344788 3.4631577l0 0c0 2.7048874 -2.192749 4.8976364 -4.897644 4.8976364l0 0c-2.7048645 0 -4.8976135 -2.192749 -4.8976135 -4.8976364z" fill-rule="evenodd"/><path fill="#000000" fill-opacity="0.0" d="m381.69028 126.59843l0.7559204 40.755898" fill-rule="evenodd"/><path stroke="#000000" stroke-width="1.0" stroke-linejoin="round" stroke-linecap="butt" d="m381.69028 126.59843l0.6446533 34.756935" fill-rule="evenodd"/><path fill="#000000" stroke="#000000" stroke-width="1.0" stroke-linecap="butt" d="m380.68347 161.38599l1.7356262 4.5066986l1.5672913 -4.5679474z" fill-rule="evenodd"/><path fill="#ffffff" d="m400.79266 97.70079l0 0c0 -2.704895 2.192749 -4.897644 4.8976135 -4.897644l0 0c1.2989502 0 2.5446777 0.51600647 3.4631653 1.4344864c0.91848755 0.91848755 1.4344788 2.1642227 1.4344788 3.4631577l0 0c0 2.7048874 -2.192749 4.8976364 -4.897644 4.8976364l0 0c-2.7048645 0 -4.8976135 -2.192749 -4.8976135 -4.8976364z" fill-rule="evenodd"/><path stroke="#000000" stroke-width="1.0" stroke-linejoin="round" stroke-linecap="butt" d="m400.79266 97.70079l0 0c0 -2.704895 2.192749 -4.897644 4.8976135 -4.897644l0 0c1.2989502 0 2.5446777 0.51600647 3.4631653 1.4344864c0.91848755 0.91848755 1.4344788 2.1642227 1.4344788 3.4631577l0 0c0 2.7048874 -2.192749 4.8976364 -4.897644 4.8976364l0 0c-2.7048645 0 -4.8976135 -2.192749 -4.8976135 -4.8976364z" fill-rule="evenodd"/><path fill="#000000" fill-opacity="0.0" d="m405.69028 102.59843l0.7559204 40.755898" fill-rule="evenodd"/><path stroke="#000000" stroke-width="1.0" stroke-linejoin="round" stroke-linecap="butt" d="m405.69028 102.59843l0.6446533 34.756935" fill-rule="evenodd"/><path fill="#000000" stroke="#000000" stroke-width="1.0" stroke-linecap="butt" d="m404.68347 137.38599l1.7356262 4.5066986l1.5672913 -4.5679474z" fill-rule="evenodd"/><path fill="#ffffff" d="m424.79266 65.70079l0 0c0 -2.704895 2.192749 -4.89764 4.8976135 -4.89764l0 0c1.2989502 0 2.5446777 0.51599884 3.4631653 1.4344826c0.91848755 0.91848755 1.4344788 2.1642227 1.4344788 3.4631577l0 0c0 2.7048874 -2.192749 4.8976364 -4.897644 4.8976364l0 0c-2.7048645 0 -4.8976135 -2.192749 -4.8976135 -4.8976364z" fill-rule="evenodd"/><path stroke="#000000" stroke-width="1.0" stroke-linejoin="round" stroke-linecap="butt" d="m424.79266 65.70079l0 0c0 -2.704895 2.192749 -4.89764 4.8976135 -4.89764l0 0c1.2989502 0 2.5446777 0.51599884 3.4631653 1.4344826c0.91848755 0.91848755 1.4344788 2.1642227 1.4344788 3.4631577l0 0c0 2.7048874 -2.192749 4.8976364 -4.897644 4.8976364l0 0c-2.7048645 0 -4.8976135 -2.192749 -4.8976135 -4.8976364z" fill-rule="evenodd"/><path fill="#000000" fill-opacity="0.0" d="m429.69028 70.59843l0.7559204 40.755905" fill-rule="evenodd"/><path stroke="#000000" stroke-width="1.0" stroke-linejoin="round" stroke-linecap="butt" d="m429.69028 70.59843l0.6446533 34.756943" fill-rule="evenodd"/><path fill="#000000" stroke="#000000" stroke-width="1.0" stroke-linecap="butt" d="m428.68347 105.385994l1.7356262 4.5066833l1.5672913 -4.5679474z" fill-rule="evenodd"/><path fill="#ffffff" d="m138.97638 253.45145l0 0c0 -2.704895 2.192749 -4.897644 4.897629 -4.897644l0 0c1.2989349 0 2.5446777 0.51600647 3.4631653 1.434494c0.91848755 0.9184723 1.4344788 2.164215 1.4344788 3.46315l0 0c0 2.704895 -2.192749 4.897644 -4.897644 4.897644l0 0c-2.7048798 0 -4.897629 -2.192749 -4.897629 -4.897644z" fill-rule="evenodd"/><path stroke="#000000" stroke-width="1.0" stroke-linejoin="round" stroke-linecap="butt" d="m138.97638 253.45145l0 0c0 -2.704895 2.192749 -4.897644 4.897629 -4.897644l0 0c1.2989349 0 2.5446777 0.51600647 3.4631653 1.434494c0.91848755 0.9184723 1.4344788 2.164215 1.4344788 3.46315l0 0c0 2.704895 -2.192749 4.897644 -4.897644 4.897644l0 0c-2.7048798 0 -4.897629 -2.192749 -4.897629 -4.897644z" fill-rule="evenodd"/><path fill="#000000" fill-opacity="0.0" d="m143.87401 248.5538l-0.8503876 -37.417313" fill-rule="evenodd"/><path stroke="#000000" stroke-width="1.0" stroke-linejoin="round" stroke-linecap="butt" d="m143.87401 248.5538l-0.7140503 -31.418884" fill-rule="evenodd"/><path fill="#000000" stroke="#000000" stroke-width="1.0" stroke-linecap="butt" d="m144.81126 217.0974l-1.754425 -4.4993896l-1.5481873 4.574463z" fill-rule="evenodd"/><path fill="#ffffff" d="m66.97638 309.45145l0 0c0 -2.704895 2.192749 -4.897644 4.8976364 -4.897644l0 0c1.2989349 0 2.54467 0.5159912 3.46315 1.4344788c0.91848755 0.91848755 1.4344864 2.164215 1.4344864 3.4631653l0 0c0 2.704895 -2.192749 4.897644 -4.8976364 4.897644l0 0c-2.7048874 0 -4.8976364 -2.192749 -4.8976364 -4.897644z" fill-rule="evenodd"/><path stroke="#000000" stroke-width="1.0" stroke-linejoin="round" stroke-linecap="butt" d="m66.97638 309.45145l0 0c0 -2.704895 2.192749 -4.897644 4.8976364 -4.897644l0 0c1.2989349 0 2.54467 0.5159912 3.46315 1.4344788c0.91848755 0.91848755 1.4344864 2.164215 1.4344864 3.4631653l0 0c0 2.704895 -2.192749 4.897644 -4.8976364 4.897644l0 0c-2.7048874 0 -4.8976364 -2.192749 -4.8976364 -4.897644z" fill-rule="evenodd"/><path fill="#000000" fill-opacity="0.0" d="m71.874016 304.5538l-0.8503952 -37.417328" fill-rule="evenodd"/><path stroke="#000000" stroke-width="1.0" stroke-linejoin="round" stroke-linecap="butt" d="m71.874016 304.5538l-0.71406555 -31.418884" fill-rule="evenodd"/><path fill="#000000" stroke="#000000" stroke-width="1.0" stroke-linecap="butt" d="m72.81126 273.0974l-1.7544174 -4.4993896l-1.5481949 4.5744324z" fill-rule="evenodd"/></g></svg>